<?xml version="1.0" encoding="utf-8"?>
<!-- Generator: Adobe Illustrator 16.0.4, SVG Export Plug-In . SVG Version: 6.00 Build 0)  -->
<!DOCTYPE svg PUBLIC "-//W3C//DTD SVG 1.1//EN" "http://www.w3.org/Graphics/SVG/1.1/DTD/svg11.dtd">
<svg version="1.1" id="Layer_1" xmlns="http://www.w3.org/2000/svg" xmlns:xlink="http://www.w3.org/1999/xlink" x="0px" y="0px"
	 width="129px" height="148px" viewBox="0 0 129 148" enable-background="new 0 0 129 148" xml:space="preserve">
<g>
	<path fill="#DCA55E" d="M98.824,96.082c-6.112,6.9-15.029,11.262-24.95,11.262c-18.382,0-33.337-14.955-33.337-33.337
		c0-18.382,14.955-33.336,33.337-33.336c9.915,0,18.827,4.356,24.939,11.249l29.974-29.984H95.409L73.844,0.369L52.277,21.936
		H21.779v30.499L0.213,74.001l21.566,21.567v30.498h30.498l21.566,21.564l21.565-21.564h33.378L98.824,96.082z M21.779,89.809
		L8.008,76.037h13.771V89.809z M21.779,71.966H8.008l13.771-13.772V71.966z M75.879,8.164L89.65,21.935l-13.771,0.001V8.164z
		 M75.879,26.007h43.078L98.819,46.146c-6.369-5.726-14.388-9.041-22.94-9.497V26.007z M71.809,8.164v13.772H58.036L71.809,8.164z
		 M71.809,26.008v10.639c-8.784,0.473-16.771,3.993-22.925,9.515L28.73,26.008H71.809z M25.851,28.887l20.155,20.154
		c-5.523,6.154-9.042,14.14-9.517,22.925H25.851V28.887z M25.851,76.037h10.64c0.474,8.783,3.992,16.77,9.516,22.924l-20.155,20.154
		V76.037z M71.809,139.838l-13.773-13.771h13.773V139.838z M71.809,121.994H28.73l20.153-20.154
		c6.154,5.523,14.141,9.041,22.925,9.516V121.994z M75.879,139.838v-13.771H89.65L75.879,139.838z M75.879,121.994v-10.641
		c8.553-0.457,16.572-3.771,22.941-9.498l20.137,20.139H75.879z"/>
</g>
</svg>
