<svg width="413" height="38" viewBox="0 0 413 38" fill="none" xmlns="http://www.w3.org/2000/svg">
<g clip-path="url(#clip0)">
<path fill-rule="evenodd" clip-rule="evenodd" d="M3.12879 0C1.40092 0 0 1.40092 0 3.12879V18.7727L18.7727 0H3.12879Z" fill="white"/>
<path fill-rule="evenodd" clip-rule="evenodd" d="M0 34.4167C0 36.1446 1.40092 37.5455 3.12879 37.5455H18.7727L0 18.7727V34.4167Z" fill="white"/>
<path fill-rule="evenodd" clip-rule="evenodd" d="M18.7727 21.9015V37.5455L37.5454 18.7727H21.9015C20.1736 18.7727 18.7727 20.1736 18.7727 21.9015Z" fill="white"/>
<path fill-rule="evenodd" clip-rule="evenodd" d="M34.4166 0H18.7727L37.5454 18.7727V3.12879C37.5454 1.40092 36.1445 0 34.4166 0Z" fill="white"/>
</g>
<g clip-path="url(#clip1)">
<path fill-rule="evenodd" clip-rule="evenodd" d="M69.0117 9.28046L58.7458 17.9094V9.28046H55.0587V28.1318H58.7458V22.0249L62.5996 18.9717L70.6058 28.1318H75.39L65.2571 16.5156L73.5956 9.28046H69.0117Z" fill="white"/>
<path fill-rule="evenodd" clip-rule="evenodd" d="M86.5237 9.28088V24.8462H98.8157V28.1318H82.8361V9.28088H86.5237Z" fill="white"/>
<path fill-rule="evenodd" clip-rule="evenodd" d="M117.23 19.9342H109.523V24.8455H123.01V28.1316H105.835V9.2807H122.246V12.5668H109.523V16.6813H117.23V19.9342Z" fill="white"/>
<path fill-rule="evenodd" clip-rule="evenodd" d="M132.246 28.132H135.933V9.28113H132.246V28.132Z" fill="white"/>
<path fill-rule="evenodd" clip-rule="evenodd" d="M165.366 9.28088V28.1318H162.11L150.815 15.2872H150.782V28.1318H147.094V9.28088H150.35L161.645 22.124H161.678V9.28088H165.366Z" fill="white"/>
<path fill-rule="evenodd" clip-rule="evenodd" d="M187.922 19.9342H180.215V24.8455H193.703V28.1316H176.528V9.2807H192.938V12.5668H180.215V16.6813H187.922V19.9342Z" fill="white"/>
<path fill-rule="evenodd" clip-rule="evenodd" d="M202.938 28.1317V9.28027H214.033C216.99 9.28027 218.817 10.1107 220.046 11.3717C221.043 12.4008 221.641 13.7283 221.641 15.188C221.641 17.7769 219.781 19.7683 217.256 20.5977L221.973 28.1317H217.721L213.468 21.1289H206.625V28.1317H202.938ZM206.625 12.5659V17.8765H214.565C216.425 17.8765 217.953 16.6487 217.953 15.2217C217.953 14.6246 217.688 14.0602 217.289 13.6282C216.425 12.6655 215.296 12.5659 214.033 12.5659H206.625Z" fill="white"/>
<path fill-rule="evenodd" clip-rule="evenodd" d="M240.842 28.1317V9.28027H252.038C254.33 9.28027 256.423 9.74552 257.951 11.3048C258.981 12.334 259.546 13.6951 259.546 15.2217C259.546 16.8474 258.915 18.1089 257.918 19.1048C256.456 20.5645 254.596 21.1289 251.938 21.1289H244.53V28.1317H240.842ZM244.53 12.5659V17.8765H251.938C253.466 17.8765 254.397 17.6109 255.127 16.9143C255.593 16.4495 255.859 15.8519 255.859 15.2217C255.859 14.5904 255.626 14.0266 255.227 13.5955C254.297 12.5995 252.969 12.5659 252.038 12.5659H244.53Z" fill="white"/>
<path fill-rule="evenodd" clip-rule="evenodd" d="M278.819 19.9554H271.111V24.8667H284.599V28.1528H267.424V9.30139H283.835V12.5875H271.111V16.7025H278.819V19.9554Z" fill="white"/>
<path fill-rule="evenodd" clip-rule="evenodd" d="M293.834 28.1523V9.30139H304.93C307.887 9.30139 309.714 10.1313 310.942 11.3924C311.94 12.422 312.537 13.7489 312.537 15.2091C312.537 17.798 310.677 19.7889 308.152 20.6184L312.869 28.1523H308.618L304.366 21.15H297.522V28.1523H293.834ZM297.522 12.587V17.8976H305.462C307.322 17.8976 308.85 16.6693 308.85 15.2423C308.85 14.6452 308.584 14.0809 308.186 13.6493C307.322 12.6866 306.192 12.587 304.93 12.587H297.522Z" fill="white"/>
<path fill-rule="evenodd" clip-rule="evenodd" d="M340.639 9.30164L332.3 16.5368L342.433 28.1525H337.649L329.643 18.9929L325.789 22.0456V28.1525H322.102V9.30164H325.789V17.9311L336.054 9.30164H340.639Z" fill="white"/>
<path fill-rule="evenodd" clip-rule="evenodd" d="M349.868 28.1527H353.555V9.30182H349.868V28.1527Z" fill="white"/>
<path fill-rule="evenodd" clip-rule="evenodd" d="M382.989 9.30164V28.1525H379.733L368.438 15.3085H368.405V28.1525H364.717V9.30164H367.972L379.267 22.1452H379.301V9.30164H382.989Z" fill="white"/>
<path fill-rule="evenodd" clip-rule="evenodd" d="M409.087 13.9812C407.99 13.0517 405.366 11.8571 401.646 11.8571C399.286 11.8571 397.326 12.4878 397.326 14.2795C397.326 16.1054 400.216 16.1713 403.206 16.3705C406.828 16.6029 412.542 16.9681 412.542 22.3778C412.542 27.024 408.489 28.8162 403.672 28.8162C398.29 28.8162 394.802 26.6925 392.509 24.7671L394.735 22.2118C396.363 23.5392 399.22 25.597 403.738 25.597C406.595 25.597 408.821 24.7671 408.821 22.8753C408.821 20.7516 406.761 20.2205 403.206 19.9554C398.722 19.6234 393.605 19.2914 393.605 14.6115C393.605 9.9985 398.058 8.63837 401.778 8.63837C406.064 8.63837 409.718 10.2309 411.345 11.4255L409.087 13.9812Z" fill="white"/>
</g>
<defs>
<clipPath id="clip0">
<rect width="37.5455" height="37.5455" fill="white"/>
</clipPath>
<clipPath id="clip1">
<rect width="357.831" height="20.6883" fill="white" transform="translate(55.1688 8.42859)"/>
</clipPath>
</defs>
</svg>
